<svg version="1.1" xmlns="http://www.w3.org/2000/svg" width="512" height="512">
	<path d="M0 0 C1.52858531 -0.00346713 3.05716812 -0.00823869 4.58574581 -0.01418173 C8.7373585 -0.02657671 12.88876135 -0.02057454 17.04037428 -0.01122308 C21.53670563 -0.00438517 26.03300298 -0.01493712 30.52932739 -0.02316284 C39.31836767 -0.03645216 48.10733078 -0.03364394 56.89637399 -0.02492492 C64.04403071 -0.01812979 71.19166592 -0.01723954 78.33932495 -0.02049637 C79.86946933 -0.02118592 79.86946933 -0.02118592 81.43052572 -0.0218894 C83.50329948 -0.02284864 85.57607324 -0.02382128 87.64884698 -0.02480717 C107.05228779 -0.033347 126.45568596 -0.02354906 145.85911977 -0.00740607 C162.48202892 0.00599582 179.10487519 0.00366733 195.7277832 -0.01016235 C215.06522562 -0.02624307 234.40263075 -0.03252316 253.74007893 -0.02332556 C255.80491955 -0.02236999 257.86976019 -0.02142687 259.93460083 -0.02049637 C261.45822523 -0.01980213 261.45822523 -0.01980213 263.01262993 -0.01909386 C270.14570735 -0.01651145 277.27876098 -0.02085878 284.41183472 -0.02793503 C293.11324484 -0.03637797 301.81457384 -0.03401142 310.51597476 -0.0180928 C314.94939684 -0.01024753 319.38268403 -0.00705402 323.81610489 -0.01704025 C327.88486069 -0.02606598 331.95335823 -0.02092664 336.02209103 -0.0051076 C337.48352721 -0.00179278 338.94498582 -0.00337813 340.40640724 -0.01073496 C353.28400379 -0.07052106 367.08208969 0.75461792 378.57446289 7.13095093 C379.23639648 7.4809314 379.89833008 7.83091187 380.58032227 8.1914978 C385.87893469 11.06699601 390.66549391 14.32250921 395.13696289 18.38095093 C395.82016602 18.98423218 396.50336914 19.58751343 397.20727539 20.20907593 C409.52081946 31.7266875 416.32258993 47.75811505 417.32325613 64.49726546 C417.39600373 67.95688885 417.40842135 71.41149535 417.3976593 74.87187195 C417.40148485 76.19038011 417.4053104 77.50888828 417.40925187 78.86735123 C417.41947212 82.49820858 417.41736542 86.12896652 417.41307127 89.75983179 C417.41059311 93.6870156 417.41963171 97.61417616 417.42710876 101.54135132 C417.43982777 109.22413871 417.44165294 116.90689111 417.4393085 124.58968727 C417.43752198 130.83787862 417.43928213 137.0860594 417.44353294 143.3342495 C417.44412813 144.22515867 417.44472332 145.11606784 417.44533655 146.03397426 C417.44654836 147.84414815 417.44776249 149.65432203 417.44897892 151.46449592 C417.45984376 168.42281332 417.45769702 185.38111082 417.45159408 202.33942934 C417.44642633 217.8327944 417.45767851 233.32609655 417.4766923 248.81944916 C417.4960928 264.75078578 417.50432279 280.68209267 417.50056905 296.61344117 C417.4986603 305.54853682 417.50111264 314.48357895 417.51528358 323.41866493 C417.52722661 331.02561148 417.52856965 338.63247157 417.51649342 346.23941938 C417.51062507 350.11562146 417.50944823 353.99166563 417.52149582 357.86785698 C417.53242386 361.42538086 417.52917022 364.98261628 417.51523414 368.54012706 C417.51137376 370.41715051 417.52207751 372.29418712 417.53353101 374.17117959 C417.40326926 394.88980026 410.57918869 411.54414833 396.44946289 426.56845093 C383.62507331 438.88455678 367.23779081 445.49271159 349.47383785 445.51237869 C348.16574435 445.51621984 346.85765085 445.52006098 345.50991815 445.52401853 C344.07024628 445.52323842 342.63057447 445.52235966 341.19090271 445.52139282 C339.65216293 445.52397853 338.11342382 445.52699227 336.57468563 445.53039622 C332.35333768 445.53844535 328.13200676 445.54025463 323.91065204 445.54099369 C319.35490457 445.5428479 314.79916585 445.5503971 310.24342346 445.55712891 C300.2845391 445.57069812 290.32565876 445.5767348 280.36676669 445.58113956 C274.14514058 445.58390449 267.92351601 445.58814231 261.70189095 445.59264374 C244.46685477 445.60483478 227.23181983 445.61513428 209.99677944 445.61851883 C208.3428511 445.61884818 208.3428511 445.61884818 206.65551007 445.61918418 C204.99768395 445.6195116 204.99768395 445.6195116 203.30636638 445.61984563 C201.06687446 445.62028909 198.82738254 445.62073565 196.58789062 445.6211853 C195.47703156 445.62140673 194.36617249 445.62162816 193.22165103 445.6218563 C175.22872558 445.62580287 157.23584067 445.64325332 139.24293088 445.66654482 C120.75789721 445.69027968 102.27288386 445.70272166 83.7878347 445.70388675 C73.41403467 445.70480233 63.04028745 445.71052518 52.666502 445.72870636 C43.83161122 445.74413618 34.99678958 445.74921084 26.16188788 445.74096826 C21.65788507 445.7370719 17.15402138 445.73794158 12.65003586 445.7520256 C8.51874086 445.76482555 4.38768863 445.76351401 0.25639368 445.75143489 C-1.23017973 445.74948838 -2.7167707 445.75250738 -4.2033195 445.76127926 C-26.30574583 445.88333933 -43.8745998 439.90624082 -60.05053711 424.69345093 C-74.63608248 409.50596241 -79.01790807 391.80090854 -79.003479 371.37104797 C-79.00645013 370.05595751 -79.00942125 368.74086704 -79.0124824 367.38592535 C-79.0205221 363.74605711 -79.02234028 360.10620862 -79.02307987 356.46633255 C-79.02493574 352.53635707 -79.03248578 348.60639171 -79.03921509 344.67642212 C-79.05277771 336.08732897 -79.05881999 327.49824051 -79.06322575 318.90913844 C-79.06599186 313.54181174 -79.0702299 308.17448682 -79.07472992 302.80716133 C-79.08692023 287.93460548 -79.09721979 273.06205106 -79.10060501 258.18949032 C-79.10082458 257.2382196 -79.10104414 256.28694888 -79.10127036 255.30685178 C-79.10148864 254.35335671 -79.10170692 253.39986164 -79.10193181 252.41747278 C-79.10237527 250.48545833 -79.10282183 248.55344389 -79.10327148 246.62142944 C-79.10349291 245.66309173 -79.10371434 244.70475401 -79.10394248 243.71737576 C-79.10788832 228.1978937 -79.12533688 212.67845864 -79.14863101 197.15899473 C-79.17237621 181.20970863 -79.18480831 165.26044608 -79.18597293 149.31114203 C-79.18688794 140.36256795 -79.19259641 131.41405512 -79.21079254 122.46549797 C-79.2262364 114.84382123 -79.23128883 107.22222469 -79.22305444 99.60053527 C-79.21916296 95.71625567 -79.22000346 91.83213736 -79.23411179 87.94787788 C-79.24694162 84.38279961 -79.24557468 80.8180023 -79.23352107 77.25292391 C-79.23066924 75.3717281 -79.24243068 73.49052701 -79.25494313 71.60937065 C-79.14037963 51.63947967 -72.90129872 34.5798212 -59.05053711 20.06845093 C-54.09919847 15.34423791 -48.84430239 11.68416381 -42.86303711 8.38095093 C-42.01225586 7.90786499 -41.16147461 7.43477905 -40.28491211 6.94735718 C-27.7450963 0.62113274 -13.7879097 -0.06940865 0 0 Z " fill="#54757F" transform="translate(86.863037109375,58.619049072265625)"/>
	<path d="M0 0 C81.84 0 163.68 0 248 0 C248 73.26 248 146.52 248 222 C217.43375 222.061875 186.8675 222.12375 155.375 222.1875 C140.92211182 222.22846802 140.92211182 222.22846802 126.17724609 222.27026367 C114.37036133 222.28381348 114.37036133 222.28381348 108.83511353 222.28633118 C104.98650882 222.28911512 101.13802949 222.30031352 97.28945923 222.31672668 C92.36668523 222.33744004 87.4440912 222.34344848 82.52127767 222.33921683 C80.72316771 222.34010053 78.92505089 222.34596841 77.12697864 222.35764539 C54.23236317 222.49931231 35.87320445 217.35737625 18.8125 201.3125 C6.3950632 188.38259755 -0.13422125 171.93742421 -0.12025452 154.04603577 C-0.12111053 153.38418777 -0.12196655 152.72233978 -0.12284851 152.04043579 C-0.1244919 149.83560415 -0.11899944 147.63084999 -0.11352539 145.42602539 C-0.1132188 143.81319144 -0.11335298 142.20035735 -0.11389065 140.58752346 C-0.11411579 136.28051306 -0.10833289 131.97353062 -0.10128021 127.66652679 C-0.09557228 123.62041641 -0.09531638 119.57431272 -0.09460449 115.52819824 C-0.0893636 103.70629515 -0.07540239 91.88439722 -0.0625 80.0625 C-0.041875 53.641875 -0.02125 27.22125 0 0 Z " fill="#3F5C6C" transform="translate(8,282)"/>
	<path d="M0 0 C45.2925 -0.0928125 45.2925 -0.0928125 91.5 -0.1875 C101.01263672 -0.21481201 110.52527344 -0.24212402 120.32617188 -0.27026367 C131.99707031 -0.28381348 131.99707031 -0.28381348 137.47131348 -0.28633118 C141.27149781 -0.28911127 145.07155474 -0.30029406 148.8717041 -0.31672668 C153.73645717 -0.33748045 158.60102804 -0.34344118 163.46582127 -0.33921683 C165.24029851 -0.34009866 167.01478289 -0.34594226 168.78922176 -0.35764539 C182.5639819 -0.44418997 197.09220835 -0.09955921 209.4375 6.75 C210.09943359 7.09998047 210.76136719 7.44996094 211.44335938 7.81054688 C216.7419718 10.68604508 221.52853102 13.94155828 226 18 C226.68320312 18.60328125 227.36640625 19.2065625 228.0703125 19.828125 C240.50178472 31.45604198 247.32693192 47.66989194 248.18040848 64.57298851 C248.24503945 68.72610171 248.2478812 72.87472287 248.22705078 77.02807617 C248.22643695 78.64139706 248.22670707 80.25471848 248.2277813 81.86803913 C248.22822973 86.15827073 248.21670339 90.44838902 248.20256042 94.73859406 C248.19110502 98.77580594 248.19063064 102.81299133 248.18920898 106.85021973 C248.17874658 118.62932795 248.15082406 130.40841544 248.125 142.1875 C248.08375 168.525625 248.0425 194.86375 248 222 C166.16 222 84.32 222 0 222 C0 148.74 0 75.48 0 0 Z " fill="#3F5C6C" transform="translate(256,59)"/>
	<path d="M0 0 C81.51 0 163.02 0 247 0 C247.103125 27.410625 247.20625 54.82125 247.3125 83.0625 C247.35802002 91.69672119 247.40354004 100.33094238 247.45043945 109.22680664 C247.47302246 119.82312012 247.47302246 119.82312012 247.47721863 124.79393005 C247.48185072 128.24343664 247.50048193 131.69255302 247.52787781 135.14195251 C247.5624845 139.55860088 247.57239935 143.97469181 247.56536138 148.39146316 C247.56683037 150.00193982 247.5765606 151.61243843 247.59607565 153.22279751 C247.81052338 171.80012167 242.24202111 186.92177909 229.3359375 200.62109375 C228.56507813 201.40613281 227.79421875 202.19117188 227 203 C226.31164062 203.71285156 225.62328125 204.42570313 224.9140625 205.16015625 C212.64997177 216.99112854 195.8258788 222.18932875 179.05897522 222.12025452 C177.90733131 222.12153854 177.90733131 222.12153854 176.73242188 222.12284851 C174.16802604 222.12449534 171.60369644 222.11899372 169.03930664 222.11352539 C167.16615266 222.11321888 165.29299856 222.11335285 163.41984463 222.11389065 C158.41254391 222.11411602 153.40526718 222.10832835 148.39797211 222.10128021 C143.69593736 222.09557705 138.99390839 222.09531664 134.29187012 222.09460449 C120.54874358 222.08936124 106.80562148 222.07540005 93.0625 222.0625 C62.351875 222.041875 31.64125 222.02125 0 222 C0 148.74 0 75.48 0 0 Z " fill="#F19C1F" transform="translate(256,282)"/>
	<path d="M0 0 C4.4762263 2.34242423 7.71156708 5.49131641 11.15234375 9.140625 C12.02826172 10.04361328 12.02826172 10.04361328 12.921875 10.96484375 C14.34149047 12.43100399 15.74830794 13.90953844 17.15234375 15.390625 C21.04657623 12.14543126 24.70478349 8.86197394 28.21484375 5.203125 C32.79854448 0.61942427 36.46237749 -1.70907218 43.02734375 -2.109375 C48.45446783 -1.92138727 52.15019993 -0.25187917 56.15234375 3.390625 C59.75832338 7.4957374 60.60212206 11.51977084 60.68359375 16.88671875 C59.11097316 24.29884961 54.78318195 29.31726327 49.40234375 34.390625 C48.49935547 35.26654297 48.49935547 35.26654297 47.578125 36.16015625 C46.11196476 37.57977172 44.63343031 38.98658919 43.15234375 40.390625 C46.39753749 44.28485748 49.68099481 47.94306474 53.33984375 51.453125 C57.92354448 56.03682573 60.25204093 59.70065874 60.65234375 66.265625 C60.45668773 71.67877495 58.88590153 75.45770248 55.15234375 79.390625 C50.64006239 82.86311979 46.13216237 83.83705496 40.5234375 83.921875 C33.59927963 82.37049861 28.94867677 77.58642069 24.21484375 72.640625 C23.3321582 71.73763672 23.3321582 71.73763672 22.43164062 70.81640625 C20.99817546 69.34797852 19.57424275 67.87025523 18.15234375 66.390625 C13.21734407 70.48562473 8.70124838 74.80491289 4.265625 79.4375 C-0.25838943 83.61865937 -4.08785097 83.83116751 -10.08984375 83.703125 C-14.36330729 83.21887984 -16.43433887 82.03768746 -19.84765625 79.390625 C-23.80049582 74.2935424 -25.31124122 70.13882875 -25.16796875 63.7734375 C-23.92194375 54.50422711 -14.23503069 47.50294504 -7.84765625 41.390625 C-11.08909623 37.50089703 -14.35696388 33.87164994 -18.03515625 30.390625 C-22.6363591 25.80701757 -24.90030188 21.48449886 -25.34765625 14.953125 C-25.14573168 9.80843811 -23.24402414 6.19971607 -19.84765625 2.390625 C-13.97755982 -2.78030361 -6.96364604 -3.16392109 0 0 Z " fill="#EAEFF0" transform="translate(118.84765625,351.609375)"/>
	<path d="M0 0 C4.08234112 2.09848205 7.1248392 5.04921295 8.80859375 9.3046875 C9.29010951 13.44262121 9.18594553 17.52116202 9.05859375 21.6796875 C9.04054688 22.79730469 9.0225 23.91492188 9.00390625 25.06640625 C8.9569493 27.8133878 8.89128843 30.55858797 8.80859375 33.3046875 C9.4634375 33.27850342 10.11828125 33.25231934 10.79296875 33.2253418 C13.797927 33.12056086 16.80249974 33.05610809 19.80859375 32.9921875 C20.83855469 32.95029297 21.86851562 32.90839844 22.9296875 32.86523438 C29.75460236 32.75655739 34.67689852 33.55547887 39.80859375 38.3046875 C42.91088509 42.59110876 44.56233453 46.95467663 44.2578125 52.2890625 C43.06066162 57.66062644 39.96755885 61.38224589 35.74609375 64.7421875 C31.79520406 66.84372457 28.7088445 67.4323919 24.26171875 67.40234375 C23.41738281 67.39912109 22.57304687 67.39589844 21.703125 67.39257812 C20.39408203 67.38000977 20.39408203 67.38000977 19.05859375 67.3671875 C18.17042969 67.36267578 17.28226562 67.35816406 16.3671875 67.35351562 C14.18092046 67.3417615 11.99479196 67.32532999 9.80859375 67.3046875 C9.855 68.57183594 9.90140625 69.83898437 9.94921875 71.14453125 C10.41678148 89.20033492 10.41678148 89.20033492 5.80859375 95.3046875 C1.6387802 99.47450105 -2.19240644 101.07529408 -8.00390625 101.7421875 C-12.95235135 101.59251808 -16.53622114 99.55464145 -20.19140625 96.3046875 C-23.5420588 91.89186843 -25.32618329 87.3864667 -25.2890625 81.85546875 C-25.28583984 81.00791016 -25.28261719 80.16035156 -25.27929688 79.28710938 C-25.26672852 77.96549805 -25.26672852 77.96549805 -25.25390625 76.6171875 C-25.24939453 75.72451172 -25.24488281 74.83183594 -25.24023438 73.91210938 C-25.22845608 71.70956763 -25.21200789 69.50716151 -25.19140625 67.3046875 C-26.08279297 67.34396362 -26.08279297 67.34396362 -26.9921875 67.3840332 C-29.72498367 67.48895685 -32.45735483 67.55330779 -35.19140625 67.6171875 C-36.12597656 67.65908203 -37.06054688 67.70097656 -38.0234375 67.74414062 C-44.66742404 67.86029424 -49.11013402 66.70886994 -54.19140625 62.3046875 C-58.3409096 56.98481141 -59.64807788 53.04059407 -59.19140625 46.3046875 C-57.15011389 40.42096246 -52.74074883 36.07935879 -47.19140625 33.3046875 C-45.45096455 33.22019122 -43.70730903 33.19745726 -41.96484375 33.20703125 C-40.93359375 33.21025391 -39.90234375 33.21347656 -38.83984375 33.21679688 C-37.21949219 33.22936523 -37.21949219 33.22936523 -35.56640625 33.2421875 C-33.93445313 33.24895508 -33.93445313 33.24895508 -32.26953125 33.25585938 C-29.57676836 33.26766974 -26.88411437 33.28413972 -24.19140625 33.3046875 C-24.21235352 32.60907715 -24.23330078 31.9134668 -24.25488281 31.19677734 C-24.33837605 28.02456292 -24.39017154 24.85258019 -24.44140625 21.6796875 C-24.49167969 20.03806641 -24.49167969 20.03806641 -24.54296875 18.36328125 C-24.62014468 11.9962667 -24.52524328 8.11303224 -20.19140625 3.3046875 C-14.67567763 -1.93525469 -7.08657417 -2.24850303 0 0 Z " fill="#EAEEEF" transform="translate(144.19140625,120.6953125)"/>
	<path d="M0 0 C1.09328865 -0.01226624 1.09328865 -0.01226624 2.20866394 -0.02478027 C4.62127877 -0.04959476 7.03383479 -0.06614239 9.4465332 -0.08056641 C10.27227152 -0.08589008 11.09800983 -0.09121376 11.94877052 -0.09669876 C16.32163184 -0.12341649 20.69446477 -0.14279355 25.06738281 -0.15722656 C28.67864391 -0.17055135 32.28933802 -0.19837828 35.90039062 -0.23925781 C40.26760206 -0.28869333 44.63430028 -0.3133611 49.00177956 -0.32045364 C50.66150325 -0.32714798 52.3212163 -0.3423226 53.98077965 -0.36634445 C70.83876963 -0.59638857 70.83876963 -0.59638857 76.80981445 5.19287109 C81.4933945 10.35681832 82.16264775 13.5859999 82.09106445 20.43115234 C81.5690112 25.55742528 78.9341791 28.17820056 75.24731445 31.50537109 C71.03522631 34.42143212 67.24647118 34.35140813 62.3125 34.36987305 C61.5511676 34.37644424 60.78983521 34.38301544 60.00543213 34.38978577 C57.48579813 34.40949702 54.96622366 34.42117622 52.4465332 34.43115234 C51.15453475 34.43726563 51.15453475 34.43726563 49.83643532 34.44350243 C45.27784083 34.46435347 40.71927637 34.4786596 36.16064453 34.48803711 C31.45625935 34.49910219 26.75234709 34.5335058 22.04812908 34.57320881 C18.42695749 34.59937239 14.80589868 34.60772868 11.18464088 34.61131859 C9.45072039 34.61618488 7.71680494 34.62780014 5.98297691 34.64635658 C3.55337557 34.67074421 1.12499916 34.66978421 -1.3046875 34.6628418 C-2.01711105 34.67565186 -2.72953461 34.68846191 -3.46354675 34.70166016 C-8.49705193 34.64938655 -11.30124763 33.32358461 -15.19018555 30.19287109 C-19.81301895 24.94533047 -20.54850998 21.84303951 -20.4675293 14.95068359 C-19.93574298 9.66278023 -16.93613656 6.73294767 -13.12768555 3.38037109 C-8.65423123 0.04907533 -5.46110587 0.05323272 0 0 Z " fill="#ECEFEE" transform="translate(353.190185546875,340.80712890625)"/>
	<path d="M0 0 C1.14177956 -0.00744736 1.14177956 -0.00744736 2.30662537 -0.01504517 C4.83170468 -0.02968183 7.35672112 -0.03647221 9.88183594 -0.04199219 C11.63580324 -0.04774357 13.38977053 -0.05350131 15.14373779 -0.05926514 C18.82580865 -0.06978021 22.50785764 -0.07561917 26.18994141 -0.07910156 C30.90211591 -0.0845793 35.61400044 -0.10858969 40.32608414 -0.13707352 C43.95154658 -0.1557249 47.57693962 -0.16090689 51.20244598 -0.16243744 C52.93914114 -0.16546019 54.67583519 -0.17347599 56.41248322 -0.18662262 C58.84682539 -0.2037313 61.28046538 -0.20179103 63.71484375 -0.1953125 C64.42883835 -0.20452728 65.14283295 -0.21374207 65.87846375 -0.22323608 C71.19905993 -0.1790154 75.32434217 1.02169238 79.26074219 4.69628906 C83.66407165 10.45448913 84.22424746 13.9863019 83.61621094 21.16113281 C81.71087749 26.47601031 78.52103082 30.67673741 73.41770935 33.28459167 C69.96634671 34.36446426 66.74575017 34.44876639 63.16723633 34.43579102 C62.06869072 34.44345741 62.06869072 34.44345741 60.94795227 34.45127869 C58.53650654 34.46513394 56.1253479 34.46422106 53.71386719 34.46191406 C52.03144729 34.46580314 50.34902837 34.47013825 48.66661072 34.47489929 C45.14367487 34.48235268 41.62083925 34.48207656 38.09790039 34.47680664 C33.59092294 34.47101217 29.08435646 34.48794657 24.57744694 34.51115131 C21.1038118 34.52590694 17.63027523 34.52675789 14.1566143 34.52364159 C12.49528629 34.52415385 10.83395262 34.52937368 9.17265511 34.53945351 C6.84636095 34.55183681 4.5208622 34.54501557 2.19458008 34.53344727 C1.51335083 34.541091 0.83212158 34.54873474 0.13024902 34.55661011 C-5.24795935 34.4977115 -9.27541257 33.10596647 -13.24707031 29.44238281 C-13.7253125 28.85457031 -14.20355469 28.26675781 -14.69628906 27.66113281 C-15.18742187 27.07332031 -15.67855469 26.48550781 -16.18457031 25.87988281 C-19.22747488 21.51871666 -18.95551938 16.25112079 -18.38378906 11.16113281 C-14.24018455 2.87392379 -8.82445812 0.01366101 0 0 Z " fill="#ECEFEE" transform="translate(351.3837890625,409.8388671875)"/>
	<path d="M0 0 C1.14177956 -0.00744736 1.14177956 -0.00744736 2.30662537 -0.01504517 C4.83170468 -0.02968183 7.35672112 -0.03647221 9.88183594 -0.04199219 C11.63580324 -0.04774357 13.38977053 -0.05350131 15.14373779 -0.05926514 C18.82580865 -0.06978021 22.50785764 -0.07561917 26.18994141 -0.07910156 C30.90211591 -0.0845793 35.61400044 -0.10858969 40.32608414 -0.13707352 C43.95154658 -0.1557249 47.57693962 -0.16090689 51.20244598 -0.16243744 C52.93914114 -0.16546019 54.67583519 -0.17347599 56.41248322 -0.18662262 C58.84682539 -0.2037313 61.28046538 -0.20179103 63.71484375 -0.1953125 C64.42883835 -0.20452728 65.14283295 -0.21374207 65.87846375 -0.22323608 C71.19905993 -0.1790154 75.32434217 1.02169238 79.26074219 4.69628906 C83.66407165 10.45448913 84.22424746 13.9863019 83.61621094 21.16113281 C81.71087749 26.47601031 78.52103082 30.67673741 73.41770935 33.28459167 C69.96634671 34.36446426 66.74575017 34.44876639 63.16723633 34.43579102 C62.06869072 34.44345741 62.06869072 34.44345741 60.94795227 34.45127869 C58.53650654 34.46513394 56.1253479 34.46422106 53.71386719 34.46191406 C52.03144729 34.46580314 50.34902837 34.47013825 48.66661072 34.47489929 C45.14367487 34.48235268 41.62083925 34.48207656 38.09790039 34.47680664 C33.59092294 34.47101217 29.08435646 34.48794657 24.57744694 34.51115131 C21.1038118 34.52590694 17.63027523 34.52675789 14.1566143 34.52364159 C12.49528629 34.52415385 10.83395262 34.52937368 9.17265511 34.53945351 C6.84636095 34.55183681 4.5208622 34.54501557 2.19458008 34.53344727 C1.51335083 34.541091 0.83212158 34.54873474 0.13024902 34.55661011 C-5.24795935 34.4977115 -9.27541257 33.10596647 -13.24707031 29.44238281 C-13.7253125 28.85457031 -14.20355469 28.26675781 -14.69628906 27.66113281 C-15.18742187 27.07332031 -15.67855469 26.48550781 -16.18457031 25.87988281 C-19.22747488 21.51871666 -18.95551938 16.25112079 -18.38378906 11.16113281 C-14.24018455 2.87392379 -8.82445812 0.01366101 0 0 Z " fill="#EAEEEF" transform="translate(351.3837890625,153.8388671875)"/>
</svg>